<svg xmlns="http://www.w3.org/2000/svg" viewBox="0 0 600 380"><rect width="600" height="380" fill="#f6f3ee"/><text x="40" y="40" font-family="Hanken Grotesk, Arial, sans-serif" font-size="15" font-weight="400" fill="#6a625b" text-anchor="start">How much content fits a space</text><rect x="60" y="90" width="220" height="220" rx="8" fill="#fffdfa" stroke="#d9cfc2"/><rect x="75" y="105" width="56" height="56" rx="5" fill="#2f6b4f"/><rect x="145" y="105" width="56" height="56" rx="5" fill="#2f6b4f"/><rect x="215" y="105" width="56" height="56" rx="5" fill="#2f6b4f"/><rect x="75" y="175" width="56" height="56" rx="5" fill="#2f6b4f"/><rect x="145" y="175" width="56" height="56" rx="5" fill="#2f6b4f"/><rect x="215" y="175" width="56" height="56" rx="5" fill="#2f6b4f"/><rect x="75" y="245" width="56" height="56" rx="5" fill="#2f6b4f"/><rect x="145" y="245" width="56" height="56" rx="5" fill="#2f6b4f"/><rect x="215" y="245" width="56" height="56" rx="5" fill="#2f6b4f"/><text x="170" y="335" font-family="Hanken Grotesk, Arial, sans-serif" font-size="13" font-weight="400" fill="#6a625b" text-anchor="middle">dense</text><rect x="320" y="90" width="220" height="220" rx="8" fill="#fffdfa" stroke="#d9cfc2"/><rect x="350" y="120" width="80" height="80" rx="6" fill="#2f6b4f"/><rect x="460" y="120" width="80" height="80" rx="6" fill="#2f6b4f"/><rect x="350" y="220" width="80" height="80" rx="6" fill="#2f6b4f"/><rect x="460" y="220" width="80" height="80" rx="6" fill="#2f6b4f"/><text x="430" y="335" font-family="Hanken Grotesk, Arial, sans-serif" font-size="13" font-weight="400" fill="#6a625b" text-anchor="middle">airy</text></svg>