<svg xmlns="http://www.w3.org/2000/svg" viewBox="0 0 600 380"><rect width="600" height="380" fill="#f6f3ee"/><text x="40" y="38" font-family="Hanken Grotesk, Arial, sans-serif" font-size="15" font-weight="400" fill="#6a625b" text-anchor="start">The parts of a strong feed ad</text><rect x="200" y="60" width="200" height="285" rx="10" fill="#fffdfa" stroke="#d9cfc2"/><circle cx="222" cy="84" r="11" fill="#b3492f"/><text x="242" y="89" font-family="Hanken Grotesk, Arial, sans-serif" font-size="12" font-weight="600" fill="#1b1714" text-anchor="start">Brand</text><rect x="212" y="106" width="176" height="120" rx="6" fill="#2f6b4f"/><text x="300" y="172" font-family="Hanken Grotesk, Arial, sans-serif" font-size="13" font-weight="400" fill="#fffdfa" text-anchor="middle">hero / product</text><rect x="212" y="238" width="150" height="13" rx="3" fill="#1b1714" opacity="0.85"/><rect x="212" y="258" width="120" height="9" rx="3" fill="#d9cfc2"/><rect x="212" y="295" width="120" height="34" rx="6" fill="#b3492f"/><text x="272" y="317" font-family="Hanken Grotesk, Arial, sans-serif" font-size="12" font-weight="600" fill="#fffdfa" text-anchor="middle">Shop now</text><text x="60" y="92" font-family="Hanken Grotesk, Arial, sans-serif" font-size="12" font-weight="400" fill="#b3492f" text-anchor="start">Logo / brand</text><line x1="150" y1="88" x2="210" y2="84" stroke="#b3492f" stroke-width="1.5"/><text x="60" y="168" font-family="Hanken Grotesk, Arial, sans-serif" font-size="12" font-weight="400" fill="#b3492f" text-anchor="start">Hook / hero</text><line x1="150" y1="166" x2="210" y2="166" stroke="#b3492f" stroke-width="1.5"/><text x="430" y="244" font-family="Hanken Grotesk, Arial, sans-serif" font-size="12" font-weight="400" fill="#b3492f" text-anchor="start">Headline</text><line x1="392" y1="244" x2="425" y2="244" stroke="#b3492f" stroke-width="1.5"/><text x="430" y="316" font-family="Hanken Grotesk, Arial, sans-serif" font-size="12" font-weight="400" fill="#b3492f" text-anchor="start">CTA</text><line x1="334" y1="312" x2="425" y2="314" stroke="#b3492f" stroke-width="1.5"/></svg>