<svg xmlns="http://www.w3.org/2000/svg" viewBox="0 0 600 380"><rect width="600" height="380" fill="#f6f3ee"/><text x="40" y="38" font-family="Hanken Grotesk, Arial, sans-serif" font-size="15" font-weight="400" fill="#6a625b" text-anchor="start">Prototype — screens linked into a flow</text><rect x="60" y="120" width="120" height="150" rx="8" fill="#fffdfa" stroke="#d9cfc2"/><rect x="75" y="135" width="90" height="20" rx="3" fill="#d9cfc2"/><rect x="75" y="165" width="90" height="60" rx="3" fill="#d9cfc2"/><rect x="240" y="120" width="120" height="150" rx="8" fill="#fffdfa" stroke="#d9cfc2"/><rect x="255" y="135" width="90" height="20" rx="3" fill="#d9cfc2"/><rect x="255" y="165" width="90" height="60" rx="3" fill="#d9cfc2"/><rect x="420" y="120" width="120" height="150" rx="8" fill="#fffdfa" stroke="#d9cfc2"/><rect x="435" y="135" width="90" height="20" rx="3" fill="#d9cfc2"/><rect x="435" y="165" width="90" height="60" rx="3" fill="#d9cfc2"/><path d="M180 195 H240 m0 0 l-8 -5 m8 5 l-8 5" stroke="#b3492f" stroke-width="2" fill="none"/><path d="M360 195 H420 m0 0 l-8 -5 m8 5 l-8 5" stroke="#b3492f" stroke-width="2" fill="none"/></svg>