<svg xmlns="http://www.w3.org/2000/svg" viewBox="0 0 600 380"><rect width="600" height="380" fill="#f6f3ee"/><text x="40" y="38" font-family="Hanken Grotesk, Arial, sans-serif" font-size="15" font-weight="400" fill="#6a625b" text-anchor="start">Cognitive load — fewer choices, less effort</text><rect x="60" y="90" width="220" height="220" rx="8" fill="#fffdfa" stroke="#d9cfc2"/><rect x="75" y="105" width="44" height="44" rx="5" fill="#b3492f" opacity="0.8"/><rect x="127" y="105" width="44" height="44" rx="5" fill="#b3492f" opacity="0.8"/><rect x="179" y="105" width="44" height="44" rx="5" fill="#b3492f" opacity="0.8"/><rect x="231" y="105" width="44" height="44" rx="5" fill="#b3492f" opacity="0.8"/><rect x="75" y="157" width="44" height="44" rx="5" fill="#b3492f" opacity="0.8"/><rect x="127" y="157" width="44" height="44" rx="5" fill="#b3492f" opacity="0.8"/><rect x="179" y="157" width="44" height="44" rx="5" fill="#b3492f" opacity="0.8"/><rect x="231" y="157" width="44" height="44" rx="5" fill="#b3492f" opacity="0.8"/><rect x="75" y="209" width="44" height="44" rx="5" fill="#b3492f" opacity="0.8"/><rect x="127" y="209" width="44" height="44" rx="5" fill="#b3492f" opacity="0.8"/><rect x="179" y="209" width="44" height="44" rx="5" fill="#b3492f" opacity="0.8"/><rect x="231" y="209" width="44" height="44" rx="5" fill="#b3492f" opacity="0.8"/><rect x="75" y="261" width="44" height="44" rx="5" fill="#b3492f" opacity="0.8"/><rect x="127" y="261" width="44" height="44" rx="5" fill="#b3492f" opacity="0.8"/><rect x="179" y="261" width="44" height="44" rx="5" fill="#b3492f" opacity="0.8"/><rect x="231" y="261" width="44" height="44" rx="5" fill="#b3492f" opacity="0.8"/><text x="170" y="335" font-family="Hanken Grotesk, Arial, sans-serif" font-size="13" font-weight="400" fill="#6a625b" text-anchor="middle">heavy</text><rect x="320" y="90" width="220" height="220" rx="8" fill="#fffdfa" stroke="#d9cfc2"/><rect x="385" y="170" width="90" height="60" rx="8" fill="#2f6b4f"/><text x="430" y="335" font-family="Hanken Grotesk, Arial, sans-serif" font-size="13" font-weight="400" fill="#6a625b" text-anchor="middle">light</text></svg>