<svg xmlns="http://www.w3.org/2000/svg" viewBox="0 0 600 380"><rect width="600" height="380" fill="#f6f3ee"/><text x="40" y="38" font-family="Hanken Grotesk, Arial, sans-serif" font-size="15" font-weight="400" fill="#6a625b" text-anchor="start">Fidelity — low-fi to high-fi</text><rect x="60" y="110" width="140" height="170" rx="8" fill="#fffdfa" stroke="#d9cfc2"/><rect x="78" y="128" width="104" height="20" fill="#d9cfc2"/><rect x="78" y="158" width="104" height="70" fill="#d9cfc2"/><text x="130" y="300" font-family="Hanken Grotesk, Arial, sans-serif" font-size="12" font-weight="400" fill="#6a625b" text-anchor="middle">lo-fi</text><rect x="230" y="110" width="140" height="170" rx="8" fill="#fffdfa" stroke="#d9cfc2"/><rect x="248" y="128" width="104" height="20" rx="3" fill="#6a625b"/><rect x="248" y="158" width="104" height="70" rx="3" fill="#d9cfc2"/><rect x="248" y="238" width="60" height="16" rx="3" fill="#6a625b"/><text x="300" y="300" font-family="Hanken Grotesk, Arial, sans-serif" font-size="12" font-weight="400" fill="#6a625b" text-anchor="middle">mid</text><rect x="400" y="110" width="140" height="170" rx="8" fill="#fffdfa" stroke="#d9cfc2"/><rect x="418" y="128" width="104" height="20" rx="3" fill="#2f6b4f"/><rect x="418" y="158" width="104" height="70" rx="3" fill="#efe2db"/><rect x="418" y="238" width="60" height="16" rx="3" fill="#b3492f"/><text x="470" y="300" font-family="Hanken Grotesk, Arial, sans-serif" font-size="12" font-weight="400" fill="#6a625b" text-anchor="middle">hi-fi</text></svg>